<svg width="115" height="36" viewBox="0 0 115 36" fill="none" xmlns="http://www.w3.org/2000/svg">
<path d="M0 17.0599L20.1813 0L12.3856 30.7519L12.0789 19.8489L0 17.0599Z" fill="#4F39F6"/>
<path d="M13.7361 13.2922L27.882 17.5241L7.17171 35.205L7.17649 35.2093L13.7361 13.2922Z" fill="#4F39F6"/>
<path d="M41.9381 11.9748C42.9214 11.9748 43.8631 12.1498 44.7631 12.4998C45.6797 12.8331 46.4464 13.2831 47.0631 13.8498C47.6964 14.4164 48.0714 15.0248 48.1881 15.6748C48.2714 16.1081 48.2131 16.5914 48.0131 17.1248C47.8131 17.6414 47.4964 18.0998 47.0631 18.4998C46.6297 18.8831 46.1047 19.0914 45.4881 19.1248C45.2714 19.1248 44.9964 19.0998 44.6631 19.0498C44.3297 18.9998 44.0047 18.8998 43.6881 18.7498C43.3881 18.5998 43.1464 18.3831 42.9631 18.0998C43.2131 17.9664 43.3797 17.8248 43.4631 17.6748C43.5464 17.5248 43.5714 17.3748 43.5381 17.2248C43.4714 16.8914 43.2714 16.6164 42.9381 16.3998C42.6214 16.1831 42.2297 16.0498 41.7631 15.9998C41.4964 15.9664 41.1881 15.9748 40.8381 16.0248C40.4881 16.0581 40.1631 16.1748 39.8631 16.3748C39.5797 16.5581 39.3797 16.8664 39.2631 17.2998C39.1964 17.5498 39.2047 17.8248 39.2881 18.1248C39.3881 18.4081 39.6214 18.6831 39.9881 18.9498C40.3547 19.1998 40.9131 19.4164 41.6631 19.5998C42.8131 19.8664 43.8797 20.1581 44.8631 20.4748C45.8631 20.7914 46.7381 21.1831 47.4881 21.6498C48.2381 22.1164 48.8131 22.6998 49.2131 23.3998C49.6297 24.0831 49.8214 24.9414 49.7881 25.9748C49.7714 26.6581 49.5881 27.3748 49.2381 28.1248C48.8881 28.8748 48.3797 29.5748 47.7131 30.2248C47.0464 30.8581 46.2297 31.3748 45.2631 31.7748C44.2964 32.1748 43.1964 32.3748 41.9631 32.3748C41.1797 32.3748 40.3714 32.3081 39.5381 32.1748C38.7047 32.0414 37.9131 31.8331 37.1631 31.5498C36.4297 31.2664 35.7797 30.8914 35.2131 30.4248C34.7131 29.9914 34.3547 29.4498 34.1381 28.7998C33.9381 28.1498 33.8964 27.4998 34.0131 26.8498C34.1297 26.1831 34.4214 25.6164 34.8881 25.1498C35.3714 24.6831 36.0381 24.4248 36.8881 24.3748C36.7214 24.8748 36.8131 25.3664 37.1631 25.8498C37.5297 26.3164 38.0714 26.7164 38.7881 27.0498C39.5047 27.3664 40.2881 27.5581 41.1381 27.6248C42.0214 27.6914 42.7881 27.6581 43.4381 27.5248C44.1047 27.3914 44.4714 27.1164 44.5381 26.6998C44.6214 26.1998 44.5214 25.7998 44.2381 25.4998C43.9547 25.1998 43.5631 24.9748 43.0631 24.8248C42.5631 24.6581 42.0214 24.5248 41.4381 24.4248C40.8547 24.3081 40.3131 24.1914 39.8131 24.0748C39.1464 23.8914 38.4714 23.6581 37.7881 23.3748C37.1214 23.0748 36.5047 22.6998 35.9381 22.2498C35.3881 21.7998 34.9381 21.2498 34.5881 20.5998C34.2381 19.9498 34.0547 19.1914 34.0381 18.3248C34.0214 17.3081 34.2297 16.4081 34.6631 15.6248C35.0964 14.8248 35.6881 14.1581 36.4381 13.6248C37.1881 13.0748 38.0381 12.6664 38.9881 12.3998C39.9547 12.1164 40.9381 11.9748 41.9381 11.9748ZM71.0848 21.2748C71.2514 22.8248 71.1764 24.1998 70.8598 25.3998C70.5598 26.5998 70.0848 27.6414 69.4348 28.5248C68.8014 29.3914 68.0514 30.1081 67.1848 30.6748C66.3181 31.2248 65.3931 31.6414 64.4098 31.9248C63.4431 32.1914 62.4848 32.3248 61.5348 32.3248C60.5848 32.3248 59.6181 32.1998 58.6348 31.9498C57.6514 31.6998 56.7181 31.3081 55.8348 30.7748C54.9681 30.2414 54.2014 29.5498 53.5348 28.6998C52.8848 27.8498 52.4014 26.8414 52.0848 25.6748C51.7681 24.4914 51.6931 23.1248 51.8598 21.5748C51.9931 20.2414 52.3264 18.9998 52.8598 17.8498C53.3931 16.6831 54.0848 15.6748 54.9348 14.8248C55.7848 13.9581 56.7598 13.2914 57.8598 12.8248C58.9598 12.3414 60.1348 12.1164 61.3848 12.1498C61.4681 12.1498 61.5931 12.0914 61.7598 11.9748C61.9264 11.8414 62.1514 11.7164 62.4348 11.5998C62.7181 11.4831 63.0598 11.4414 63.4598 11.4748C64.2098 11.5414 65.0014 11.8498 65.8348 12.3998C66.6681 12.9498 67.4598 13.6831 68.2098 14.5998C68.9598 15.4998 69.5931 16.5248 70.1098 17.6748C70.6264 18.8248 70.9514 20.0248 71.0848 21.2748ZM61.6098 27.6998C62.1931 27.6831 62.7431 27.5998 63.2598 27.4498C63.7931 27.2998 64.2681 27.0248 64.6848 26.6248C65.1014 26.2248 65.4348 25.6581 65.6848 24.9248C65.9514 24.1914 66.0931 23.2498 66.1098 22.0998C66.1264 21.2998 65.9514 20.5248 65.5848 19.7748C65.2181 19.0248 64.7098 18.3914 64.0598 17.8748C63.4098 17.3414 62.6681 17.0331 61.8348 16.9498C60.9348 16.8498 60.1681 16.9414 59.5348 17.2248C58.9014 17.4914 58.3764 17.8914 57.9598 18.4248C57.5598 18.9414 57.2514 19.5248 57.0348 20.1748C56.8181 20.8248 56.6848 21.4831 56.6348 22.1498C56.5348 23.2998 56.6431 24.2414 56.9598 24.9748C57.2764 25.7081 57.7014 26.2748 58.2348 26.6748C58.7681 27.0748 59.3348 27.3498 59.9348 27.4998C60.5514 27.6498 61.1098 27.7164 61.6098 27.6998ZM86.9465 24.0748C86.8798 24.0914 86.7798 24.1831 86.6465 24.3498C86.5298 24.5164 86.4465 24.6914 86.3965 24.8748C86.3131 25.1414 86.3381 25.3581 86.4715 25.5248C86.8215 25.9414 87.2715 26.4331 87.8215 26.9998C88.3715 27.5498 88.9215 28.0748 89.4715 28.5748C90.0381 29.0748 90.5215 29.4581 90.9215 29.7248C90.6215 30.5248 90.1465 31.1664 89.4965 31.6498C88.8631 32.1164 88.1548 32.3414 87.3715 32.3248C86.5881 32.3081 85.8215 31.9581 85.0715 31.2748C84.9715 31.1748 84.7798 30.9581 84.4965 30.6248C84.2131 30.2748 83.8881 29.8664 83.5215 29.3998C83.1548 28.9331 82.7881 28.4664 82.4215 27.9998C82.0548 27.5331 81.7381 27.1248 81.4715 26.7748C81.2048 26.4248 81.0381 26.2081 80.9715 26.1248C80.6548 25.7081 80.3548 25.6164 80.0715 25.8498C79.7881 26.0831 79.6131 26.5664 79.5465 27.2998C79.5131 27.7331 79.5131 28.2331 79.5465 28.7998C79.5965 29.3498 79.6631 29.8414 79.7465 30.2748C79.8465 30.7081 79.9465 30.9664 80.0465 31.0498C79.6965 31.3164 79.2631 31.5664 78.7465 31.7998C78.2298 32.0331 77.6381 32.1748 76.9715 32.2248C76.7215 32.2414 76.4298 32.1748 76.0965 32.0248C75.7631 31.8748 75.4715 31.6331 75.2215 31.2998C74.9881 30.9498 74.8631 30.5164 74.8465 29.9998C74.8465 29.8664 74.8381 29.5164 74.8215 28.9498C74.8215 28.3831 74.8131 27.6914 74.7965 26.8748C74.7965 26.0414 74.7965 25.1831 74.7965 24.2998C74.7965 23.4164 74.7881 22.5831 74.7715 21.7998C74.7715 21.0164 74.7715 20.3831 74.7715 19.8998C74.7715 19.4164 74.7715 19.1748 74.7715 19.1748C74.7715 18.1914 74.7465 17.3748 74.6965 16.7248C74.6465 16.0581 74.4465 15.5498 74.0965 15.1998C73.7798 14.8831 73.5381 14.4248 73.3715 13.8248C73.2215 13.2248 73.1548 12.6581 73.1715 12.1248C73.2381 12.1414 73.4381 12.1664 73.7715 12.1998C74.1048 12.2164 74.4298 12.2414 74.7465 12.2748C74.9631 12.2748 75.2715 12.2748 75.6715 12.2748C76.0881 12.2581 76.5298 12.2414 76.9965 12.2248C77.4631 12.2081 77.8965 12.1998 78.2965 12.1998C78.6965 12.1831 78.9965 12.1664 79.1965 12.1498C79.3465 12.1498 79.6215 12.1498 80.0215 12.1498C80.4381 12.1331 80.9215 12.1248 81.4715 12.1248C82.0215 12.1248 82.5798 12.1331 83.1465 12.1498C83.7131 12.1498 84.2381 12.1664 84.7215 12.1998C85.2048 12.2331 85.5798 12.2748 85.8465 12.3248C86.9465 12.5248 87.7965 12.8914 88.3965 13.4248C88.9965 13.9581 89.4215 14.5998 89.6715 15.3498C89.9381 16.0998 90.0965 16.9164 90.1465 17.7998C90.1798 18.5498 90.0965 19.3331 89.8965 20.1498C89.6965 20.9664 89.3548 21.7248 88.8715 22.4248C88.3881 23.1248 87.7465 23.6748 86.9465 24.0748ZM79.5965 18.6998C79.5965 19.2331 79.7215 19.6331 79.9715 19.8998C80.2215 20.1498 80.4548 20.2998 80.6715 20.3498C80.9715 20.4164 81.3548 20.4248 81.8215 20.3748C82.2881 20.3081 82.7548 20.1914 83.2215 20.0248C83.6881 19.8414 84.0798 19.6081 84.3965 19.3248C84.7298 19.0414 84.8965 18.7164 84.8965 18.3498C84.8965 17.8664 84.6965 17.4998 84.2965 17.2498C83.8965 16.9831 83.3881 16.8164 82.7715 16.7498C82.1715 16.6831 81.5715 16.6998 80.9715 16.7998C80.5048 16.8664 80.1548 17.0748 79.9215 17.4248C79.6881 17.7748 79.5798 18.1998 79.5965 18.6998ZM108.372 27.2998C108.572 27.7831 108.856 28.2498 109.222 28.6998C109.589 29.1331 109.906 29.4581 110.172 29.6748C109.772 30.5081 109.281 31.1164 108.697 31.4998C108.214 31.8164 107.697 31.9998 107.147 32.0498C106.847 32.0831 106.506 32.0581 106.122 31.9748C105.739 31.8914 105.339 31.6581 104.922 31.2748C104.522 30.8748 104.122 30.2414 103.722 29.3748C103.606 29.0914 103.347 28.8914 102.947 28.7748C102.547 28.6581 102.122 28.5914 101.672 28.5748C101.222 28.5414 100.856 28.5248 100.572 28.5248C100.289 28.5248 99.9391 28.5331 99.5225 28.5498C99.1225 28.5664 98.7558 28.6331 98.4225 28.7498C98.0891 28.8664 97.8891 29.0748 97.8225 29.3748C97.7558 29.6414 97.7475 29.9164 97.7975 30.1998C97.8475 30.4831 97.9558 30.6664 98.1225 30.7498C97.8391 31.0164 97.5558 31.2498 97.2725 31.4498C97.0058 31.6498 96.7308 31.8081 96.4475 31.9248C96.0975 32.0748 95.7308 32.1498 95.3475 32.1498C94.9808 32.1498 94.5641 32.0664 94.0975 31.8998C93.8808 31.8164 93.6558 31.6664 93.4225 31.4498C93.1891 31.2331 93.0308 30.9331 92.9475 30.5498C92.8641 30.1664 92.9308 29.6831 93.1475 29.0998C93.1641 29.0498 93.2475 28.7831 93.3975 28.2998C93.5475 27.8164 93.7391 27.1831 93.9725 26.3998C94.2225 25.5998 94.4891 24.7164 94.7725 23.7498C95.0725 22.7831 95.3725 21.7914 95.6725 20.7748C95.9891 19.7414 96.2891 18.7498 96.5725 17.7998C96.8725 16.8498 97.1391 15.9914 97.3725 15.2248C97.6058 14.4581 97.7891 13.8498 97.9225 13.3998C98.0558 12.9498 98.1225 12.7248 98.1225 12.7248C98.2725 12.6414 98.5475 12.5414 98.9475 12.4248C99.3641 12.2914 99.8058 12.2164 100.272 12.1998C100.789 12.1664 101.289 12.2331 101.772 12.3998C102.272 12.5664 102.656 12.8998 102.922 13.3998C103.039 13.5998 103.214 13.9831 103.447 14.5498C103.681 15.1164 103.956 15.7998 104.272 16.5998C104.589 17.3998 104.922 18.2581 105.272 19.1748C105.622 20.0748 105.964 20.9748 106.297 21.8748C106.647 22.7581 106.964 23.5831 107.247 24.3498C107.531 25.1164 107.772 25.7664 107.972 26.2998C108.172 26.8164 108.306 27.1498 108.372 27.2998ZM100.497 24.0748C100.931 24.0414 101.181 23.9164 101.247 23.6998C101.331 23.4831 101.381 23.2331 101.397 22.9498C101.397 22.7664 101.364 22.5414 101.297 22.2748C101.247 22.0081 101.164 21.7748 101.047 21.5748C100.947 21.3581 100.814 21.2498 100.647 21.2498C100.414 21.2498 100.156 21.4164 99.8725 21.7498C99.6058 22.0664 99.4558 22.3914 99.4225 22.7248C99.3725 23.0414 99.3975 23.3498 99.4975 23.6498C99.6141 23.9498 99.9475 24.0914 100.497 24.0748Z" fill="#4F39F6"/>
</svg>
